<svg width="150" height="60" viewBox="0 0 150 60" fill="none" xmlns="http://www.w3.org/2000/svg">
<g clip-path="url(#clip0)">
<path d="M49.1517 37.06C49.1517 40.3773 47.9825 43.1023 45.6442 45.235C43.3059 47.3676 40.2345 48.4339 36.4298 48.4339H19.606V9.33606H33.3385C36.8657 9.33606 39.6994 10.3234 41.8396 12.298C44.0193 14.2332 45.1092 16.7212 45.1092 19.7621C45.1092 22.8031 44.0193 25.2516 41.8396 27.1078C44.1382 27.8582 45.9217 29.1022 47.1899 30.8399C48.4977 32.5775 49.1517 34.6509 49.1517 37.06ZM32.744 14.8453H25.7886V25.3899H32.744C34.6463 25.3899 36.1325 24.9159 37.2026 23.9681C38.2727 23.0203 38.8077 21.717 38.8077 20.0583C38.8077 18.4391 38.2727 17.1754 37.2026 16.267C36.1722 15.3192 34.686 14.8453 32.744 14.8453ZM42.7907 36.8822C42.7907 34.9866 42.1764 33.5056 40.9478 32.4393C39.7192 31.3335 38.0349 30.7806 35.8947 30.7806H25.7886V42.9246H35.8947C38.0745 42.9246 39.7589 42.3915 40.9478 41.3252C42.1764 40.2194 42.7907 38.7384 42.7907 36.8822Z" fill="#3A3A3A"/>
<path d="M54.7218 47.8139V18.7275H60.9639V47.8139H54.7218Z" fill="#3A3A3A"/>
<path d="M75.5189 42.4231H90.9754V47.8139H66.1856V46.0959L81.4637 24.1182H67.5529V18.7275H90.8565V20.5046L75.5189 42.4231Z" fill="#3A3A3A"/>
<path d="M102.326 42.4231H117.783V47.8139H92.993V46.0959L108.271 24.1182H94.3603V18.7275H117.664V20.5046L102.326 42.4231Z" fill="#3A3A3A"/>
<path d="M143.342 18.7275H150L135.792 51.1313C134.563 53.8957 133.097 55.9099 131.393 57.1736C129.689 58.4769 127.588 59.1285 125.091 59.1285C123.427 59.1285 121.822 58.9311 120.276 58.5361V53.2639C121.901 53.4218 123.05 53.5008 123.724 53.5008C126.736 53.5008 128.856 52.0791 130.085 49.2356L131.274 46.5106L119.622 18.7275H126.34L134.722 39.8758L143.342 18.7275Z" fill="#3A3A3A"/>
<path d="M49.1517 37.06C49.1517 40.3773 47.9825 43.1023 45.6442 45.235C43.3059 47.3676 40.2345 48.4339 36.4298 48.4339H19.606V9.33606H33.3385C36.8657 9.33606 39.6994 10.3234 41.8396 12.298C44.0193 14.2332 45.1092 16.7212 45.1092 19.7621C45.1092 22.8031 44.0193 25.2516 41.8396 27.1078C44.1382 27.8582 45.9217 29.1022 47.1899 30.8399C48.4977 32.5775 49.1517 34.6509 49.1517 37.06ZM32.744 14.8453H25.7886V25.3899H32.744C34.6463 25.3899 36.1325 24.9159 37.2026 23.9681C38.2727 23.0203 38.8077 21.717 38.8077 20.0583C38.8077 18.4391 38.2727 17.1754 37.2026 16.267C36.1722 15.3192 34.686 14.8453 32.744 14.8453ZM42.7907 36.8822C42.7907 34.9866 42.1764 33.5056 40.9478 32.4393C39.7192 31.3335 38.0349 30.7806 35.8947 30.7806H25.7886V42.9246H35.8947C38.0745 42.9246 39.7589 42.3915 40.9478 41.3252C42.1764 40.2194 42.7907 38.7384 42.7907 36.8822Z" stroke="#3A3A3A"/>
<path d="M54.7218 47.8139V18.7275H60.9639V47.8139H54.7218Z" stroke="#3A3A3A"/>
<path d="M75.5189 42.4231H90.9754V47.8139H66.1856V46.0959L81.4637 24.1182H67.5529V18.7275H90.8565V20.5046L75.5189 42.4231Z" stroke="#3A3A3A"/>
<path d="M102.326 42.4231H117.783V47.8139H92.993V46.0959L108.271 24.1182H94.3603V18.7275H117.664V20.5046L102.326 42.4231Z" stroke="#3A3A3A"/>
<path d="M143.342 18.7275H150L135.792 51.1313C134.563 53.8957 133.097 55.9099 131.393 57.1736C129.689 58.4769 127.588 59.1285 125.091 59.1285C123.427 59.1285 121.822 58.9311 120.276 58.5361V53.2639C121.901 53.4218 123.05 53.5008 123.724 53.5008C126.736 53.5008 128.856 52.0791 130.085 49.2356L131.274 46.5106L119.622 18.7275H126.34L134.722 39.8758L143.342 18.7275Z" stroke="#3A3A3A"/>
<path fill-rule="evenodd" clip-rule="evenodd" d="M57.5725 0.933594C61.5255 0.933594 64.7301 4.13819 64.7301 8.09126C64.7301 12.0443 61.5255 15.2489 57.5725 15.2489C53.6194 15.2489 50.4148 12.0443 50.4148 8.09126C50.4148 4.13819 53.6194 0.933594 57.5725 0.933594ZM55.1866 8.09126C55.1866 6.77357 56.2548 5.70537 57.5725 5.70537C58.8902 5.70537 59.9584 6.77357 59.9584 8.09126C59.9584 9.40895 58.8902 10.4771 57.5725 10.4771C56.2548 10.4771 55.1866 9.40895 55.1866 8.09126Z" fill="#FCB100"/>
<path d="M16.6632 49.5477H40.2774C46.7356 49.5477 51.9709 44.3192 51.9709 37.8695C51.9709 31.4198 46.7356 26.1914 40.2774 26.1914H11.6935C8.10561 26.1914 5.19709 23.2866 5.19709 19.7035C5.19709 16.1203 8.10561 13.2156 11.6935 13.2156H19.712L16.3524 16.5709L20.0273 20.241L29.6603 10.6205L20.0273 1L16.3524 4.67009L19.712 8.02534H11.6935C5.23534 8.02534 0 13.2538 0 19.7035C0 26.1532 5.23534 31.3816 11.6935 31.3816H40.2774C43.8653 31.3816 46.7738 34.2864 46.7738 37.8695C46.7738 41.4527 43.8653 44.3574 40.2774 44.3574H16.6632V49.5477Z" fill="#23428B"/>
<path fill-rule="evenodd" clip-rule="evenodd" d="M7.15767 37.9667C11.1107 37.9667 14.3153 41.1713 14.3153 45.1244C14.3153 49.0775 11.1107 52.2821 7.15767 52.2821C3.2046 52.2821 0 49.0775 0 45.1244C0 41.1713 3.2046 37.9667 7.15767 37.9667ZM4.7718 45.1244C4.7718 43.8067 5.84 42.7385 7.15769 42.7385C8.47538 42.7385 9.54358 43.8067 9.54358 45.1244C9.54358 46.4421 8.47538 47.5103 7.15769 47.5103C5.84 47.5103 4.7718 46.4421 4.7718 45.1244Z" fill="#DD080B"/>
</g>
<defs>
<clipPath id="clip0">
<rect width="150" height="59.1286" fill="white"/>
</clipPath>
</defs>
</svg>
