<svg width="86" height="85" viewBox="0 0 86 85" fill="none" xmlns="http://www.w3.org/2000/svg">
<rect x="0.125" width="85" height="85" rx="17" fill="#7995DD"/>
<rect x="35.9829" y="20.3737" width="9.77263" height="9.77263" fill="#283D80"/>
<rect x="52.5967" y="19.3964" width="11.7272" height="11.7272" fill="#DD080B"/>
<rect x="45.7559" y="32.1005" width="15.6362" height="15.6362" fill="#F4B612"/>
<ellipse cx="53.574" cy="20.3728" rx="7.8181" ry="7.8181" fill="#333B79"/>
<path d="M36.9604 24.2822V14.5096M51.6194 30.1458L65.3011 17.4414M57.483 44.8047H69.2101" stroke="#3A3A3A" stroke-width="2"/>
<path d="M20.9966 59.7918L31.9501 21.7556L59.0328 48.8383L20.9966 59.7918Z" fill="#DD080B"/>
<path d="M11.7836 71.7C11.7702 70.7533 12.1136 69.9433 12.8136 69.27C13.5136 68.59 14.3436 68.26 15.3036 68.28C15.9302 68.28 16.4969 68.4267 17.0036 68.72C17.5169 69.0067 17.9202 69.4067 18.2136 69.92L17.1936 70.64C16.7202 69.9 16.0902 69.53 15.3036 69.53C14.6902 69.53 14.1802 69.7367 13.7736 70.15C13.3736 70.5633 13.1736 71.0833 13.1736 71.71C13.1736 72.3367 13.3736 72.8533 13.7736 73.26C14.1802 73.6667 14.6902 73.87 15.3036 73.87C16.0902 73.87 16.7202 73.5 17.1936 72.76L18.2136 73.48C17.9269 73.9933 17.5269 74.3967 17.0136 74.69C16.5002 74.9767 15.9269 75.12 15.2936 75.12C14.3269 75.14 13.4936 74.8133 12.7936 74.14C12.1002 73.46 11.7636 72.6467 11.7836 71.7Z" fill="white"/>
<path d="M19.1208 72.82V70.05H20.4708V72.93C20.4708 73.2167 20.5575 73.4467 20.7308 73.62C20.9108 73.7933 21.1375 73.88 21.4108 73.88C21.6775 73.88 21.8975 73.7933 22.0708 73.62C22.2442 73.44 22.3308 73.21 22.3308 72.93V70.05H23.6808V72.82C23.6808 73.5 23.4642 74.0533 23.0308 74.48C22.6042 74.9067 22.0642 75.12 21.4108 75.12C20.7442 75.12 20.1942 74.91 19.7608 74.49C19.3342 74.0633 19.1208 73.5067 19.1208 72.82Z" fill="white"/>
<path d="M24.8716 75V67.5H26.2216V75H24.8716Z" fill="white"/>
<path d="M30.6371 73.87V75C30.3172 75.08 30.0071 75.12 29.7071 75.12C29.0738 75.12 28.5838 74.9633 28.2372 74.65C27.8972 74.3367 27.7271 73.8733 27.7271 73.26V71.19H26.9471V70.05H27.7271V68.8H29.0772V70.05H30.4771V71.19H29.0772V73.14C29.0772 73.42 29.1472 73.62 29.2871 73.74C29.4338 73.8533 29.6705 73.91 29.9972 73.91C30.1105 73.91 30.3238 73.8967 30.6371 73.87Z" fill="white"/>
<path d="M31.4673 72.82V70.05H32.8173V72.93C32.8173 73.2167 32.904 73.4467 33.0773 73.62C33.2573 73.7933 33.484 73.88 33.7573 73.88C34.024 73.88 34.244 73.7933 34.4173 73.62C34.5906 73.44 34.6773 73.21 34.6773 72.93V70.05H36.0273V72.82C36.0273 73.5 35.8106 74.0533 35.3773 74.48C34.9506 74.9067 34.4106 75.12 33.7573 75.12C33.0906 75.12 32.5406 74.91 32.1073 74.49C31.6806 74.0633 31.4673 73.5067 31.4673 72.82Z" fill="white"/>
<path d="M40.2581 70.05V71.24H39.8981C39.4848 71.24 39.1581 71.35 38.9181 71.57C38.6848 71.79 38.5681 72.11 38.5681 72.53V75H37.2181V70.05H38.4581V70.64C38.8048 70.2067 39.2581 69.99 39.8181 69.99C39.9848 69.99 40.1314 70.01 40.2581 70.05Z" fill="white"/>
<path d="M45.4474 72.98H41.9774C42.0574 73.2933 42.2174 73.5367 42.4574 73.71C42.7041 73.8767 43.0074 73.96 43.3674 73.96C43.854 73.96 44.314 73.7933 44.7474 73.46L45.3074 74.38C44.7141 74.8733 44.0541 75.12 43.3274 75.12C42.5674 75.1333 41.9207 74.8867 41.3874 74.38C40.8607 73.8667 40.604 73.25 40.6174 72.53C40.604 71.8167 40.854 71.2033 41.3674 70.69C41.8807 70.1767 42.4941 69.9267 43.2074 69.94C43.8874 69.94 44.444 70.16 44.8774 70.6C45.3174 71.04 45.5374 71.5867 45.5374 72.24C45.5374 72.48 45.5074 72.7267 45.4474 72.98ZM41.9774 72.03H44.2274C44.2207 71.73 44.114 71.49 43.9074 71.31C43.7074 71.1233 43.4574 71.03 43.1574 71.03C42.8707 71.03 42.6207 71.12 42.4074 71.3C42.194 71.48 42.0507 71.7233 41.9774 72.03Z" fill="white"/>
<path d="M56.8235 71.93V75H55.4735V72.12C55.4735 71.8267 55.3935 71.5933 55.2335 71.42C55.0735 71.2467 54.8601 71.16 54.5935 71.16C54.3268 71.16 54.1068 71.2467 53.9335 71.42C53.7668 71.5933 53.6835 71.8167 53.6835 72.09V75H52.3335V72.12C52.3335 71.8267 52.2535 71.5933 52.0935 71.42C51.9335 71.2467 51.7201 71.16 51.4535 71.16C51.1801 71.16 50.9601 71.2467 50.7935 71.42C50.6268 71.5933 50.5435 71.8267 50.5435 72.12V75H49.1935V70.05H50.4335V70.49C50.7801 70.1233 51.2468 69.94 51.8335 69.94C52.4801 69.94 52.9701 70.1767 53.3035 70.65C53.7235 70.1767 54.2735 69.94 54.9535 69.94C55.5268 69.94 55.9801 70.12 56.3135 70.48C56.6535 70.84 56.8235 71.3233 56.8235 71.93Z" fill="white"/>
<path d="M57.7295 72.52C57.7162 71.8133 57.9728 71.2033 58.4995 70.69C59.0262 70.1767 59.6528 69.9267 60.3795 69.94C61.1062 69.9267 61.7328 70.1767 62.2595 70.69C62.7928 71.2033 63.0528 71.8133 63.0395 72.52C63.0528 73.2267 62.7928 73.84 62.2595 74.36C61.7262 74.8733 61.0962 75.1233 60.3695 75.11C59.6428 75.1233 59.0162 74.8733 58.4895 74.36C57.9695 73.84 57.7162 73.2267 57.7295 72.52ZM61.2895 73.49C61.5362 73.2367 61.6595 72.9167 61.6595 72.53C61.6595 72.1433 61.5362 71.82 61.2895 71.56C61.0495 71.3 60.7462 71.17 60.3795 71.17C60.0062 71.17 59.6995 71.3 59.4595 71.56C59.2195 71.8133 59.0995 72.1367 59.0995 72.53C59.0995 72.9167 59.2195 73.2367 59.4595 73.49C59.6995 73.7433 60.0062 73.87 60.3795 73.87C60.7462 73.87 61.0495 73.7433 61.2895 73.49Z" fill="white"/>
<path d="M63.7135 72.52C63.7001 71.8133 63.9568 71.2033 64.4835 70.69C65.0101 70.1767 65.6368 69.9267 66.3635 69.94C67.0901 69.9267 67.7168 70.1767 68.2435 70.69C68.7768 71.2033 69.0368 71.8133 69.0235 72.52C69.0368 73.2267 68.7768 73.84 68.2435 74.36C67.7101 74.8733 67.0801 75.1233 66.3535 75.11C65.6268 75.1233 65.0001 74.8733 64.4735 74.36C63.9535 73.84 63.7001 73.2267 63.7135 72.52ZM67.2735 73.49C67.5201 73.2367 67.6435 72.9167 67.6435 72.53C67.6435 72.1433 67.5201 71.82 67.2735 71.56C67.0335 71.3 66.7301 71.17 66.3635 71.17C65.9901 71.17 65.6835 71.3 65.4435 71.56C65.2035 71.8133 65.0835 72.1367 65.0835 72.53C65.0835 72.9167 65.2035 73.2367 65.4435 73.49C65.6835 73.7433 65.9901 73.87 66.3635 73.87C66.7301 73.87 67.0335 73.7433 67.2735 73.49Z" fill="white"/>
<path d="M73.5775 67.5H74.9275V75H73.6875V74.39C73.3475 74.8767 72.8175 75.12 72.0975 75.12C71.4041 75.12 70.8308 74.8767 70.3775 74.39C69.9241 73.8967 69.6975 73.2767 69.6975 72.53C69.6975 71.7833 69.9241 71.1667 70.3775 70.68C70.8308 70.1867 71.4041 69.94 72.0975 69.94C72.7241 69.94 73.2175 70.1367 73.5775 70.53V67.5ZM73.2375 73.53C73.4775 73.29 73.5975 72.9567 73.5975 72.53C73.5975 72.1033 73.4775 71.77 73.2375 71.53C72.9975 71.2833 72.7008 71.16 72.3475 71.16C71.9808 71.16 71.6741 71.2867 71.4275 71.54C71.1875 71.7933 71.0675 72.12 71.0675 72.52C71.0675 72.9267 71.1875 73.2567 71.4275 73.51C71.6675 73.7633 71.9741 73.89 72.3475 73.89C72.7075 73.89 73.0041 73.77 73.2375 73.53Z" fill="white"/>
</svg>
