<svg width="85" height="85" viewBox="0 0 85 85" fill="none" xmlns="http://www.w3.org/2000/svg">
<rect width="85" height="85" rx="17" fill="#333B79"/>
<path d="M41.9971 43.0009V58.8073" stroke="#FAD06D" stroke-width="3" stroke-linecap="round"/>
<path d="M42.2446 44.2122L64.9777 21.3606L19.5115 21.3606L42.2446 44.2122Z" fill="#FAD06D"/>
<rect width="12" height="16.3491" transform="matrix(-1 0 0 1 57.2498 12.9999)" fill="#DD080B"/>
<ellipse rx="8.99999" ry="8.91767" transform="matrix(-1 0 0 1 60.9966 25.6336)" fill="#F4B612"/>
<path d="M40.2265 38.9696C40.4891 39.2315 40.6203 39.3625 40.7476 39.4548C41.448 39.9627 42.3955 39.9627 43.0959 39.4548C43.2231 39.3625 43.3544 39.2315 43.6169 38.9696L52.665 29.9414C53.2332 29.3744 53.5173 29.091 53.6413 28.8891C54.3528 27.7307 53.726 26.2153 52.4041 25.8978C52.1739 25.8425 51.7725 25.8425 50.9698 25.8425L32.8736 25.8425C32.0709 25.8425 31.6696 25.8425 31.4393 25.8978C30.1174 26.2153 29.4907 27.7307 30.2022 28.8891C30.3261 29.091 30.6102 29.3744 31.1784 29.9414L40.2265 38.9696Z" fill="#FD7EA1"/>
<path d="M42.7192 55.6777L34.0848 60.4197L51.3537 60.4197L42.7192 55.6777Z" fill="#FAD06D"/>
<path d="M16.166 75V68.4H18.326C19.3793 68.3867 20.246 68.69 20.926 69.31C21.606 69.9234 21.9393 70.7134 21.926 71.68C21.9393 72.64 21.6027 73.4367 20.916 74.07C20.2293 74.7034 19.366 75.0134 18.326 75H16.166ZM17.516 73.78H18.316C18.9827 73.78 19.5193 73.59 19.926 73.21C20.3327 72.8234 20.536 72.3134 20.536 71.68C20.536 71.04 20.336 70.5367 19.936 70.17C19.536 69.8034 18.996 69.62 18.316 69.62H17.516V73.78Z" fill="white"/>
<path d="M25.9203 70.05V71.24H25.5603C25.147 71.24 24.8203 71.35 24.5803 71.57C24.347 71.79 24.2303 72.11 24.2303 72.53V75H22.8803V70.05H24.1203V70.64C24.467 70.2067 24.9203 69.99 25.4803 69.99C25.647 69.99 25.7936 70.01 25.9203 70.05Z" fill="white"/>
<path d="M26.6573 75V70.05H28.0073V75H26.6573ZM26.4673 68.25C26.4673 68.01 26.5506 67.81 26.7173 67.65C26.8839 67.49 27.0873 67.41 27.3273 67.41C27.5673 67.41 27.7706 67.49 27.9373 67.65C28.1106 67.81 28.1973 68.01 28.1973 68.25C28.1973 68.4834 28.1106 68.68 27.9373 68.84C27.7706 69 27.5673 69.08 27.3273 69.08C27.0873 69.08 26.8839 69 26.7173 68.84C26.5506 68.68 26.4673 68.4834 26.4673 68.25Z" fill="white"/>
<path d="M33.7928 71.93V75H32.4528V72.11C32.4528 71.8234 32.3661 71.5934 32.1928 71.42C32.0261 71.24 31.8061 71.15 31.5328 71.15C31.2595 71.15 31.0328 71.24 30.8528 71.42C30.6795 71.5934 30.5928 71.8234 30.5928 72.11V75H29.2428V70.05H30.4828V70.5C30.8561 70.1267 31.3395 69.94 31.9328 69.94C32.5061 69.94 32.9595 70.12 33.2928 70.48C33.6261 70.84 33.7928 71.3234 33.7928 71.93Z" fill="white"/>
<path d="M39.8724 75H38.3324L36.3424 72.26V75H34.9924V67.5H36.3424V72.16L38.1224 70.05H39.7224L37.8624 72.24L39.8724 75Z" fill="white"/>
<path d="M50.8209 71.93V75H49.4709V72.12C49.4709 71.8267 49.3909 71.5934 49.2309 71.42C49.0709 71.2467 48.8575 71.16 48.5909 71.16C48.3242 71.16 48.1042 71.2467 47.9309 71.42C47.7642 71.5934 47.6809 71.8167 47.6809 72.09V75H46.3309V72.12C46.3309 71.8267 46.2509 71.5934 46.0909 71.42C45.9309 71.2467 45.7175 71.16 45.4509 71.16C45.1775 71.16 44.9575 71.2467 44.7909 71.42C44.6242 71.5934 44.5409 71.8267 44.5409 72.12V75H43.1909V70.05H44.4309V70.49C44.7775 70.1234 45.2442 69.94 45.8309 69.94C46.4775 69.94 46.9675 70.1767 47.3009 70.65C47.7209 70.1767 48.2709 69.94 48.9509 69.94C49.5242 69.94 49.9775 70.12 50.3109 70.48C50.6509 70.84 50.8209 71.3234 50.8209 71.93Z" fill="white"/>
<path d="M51.7269 72.52C51.7135 71.8134 51.9702 71.2034 52.4969 70.69C53.0235 70.1767 53.6502 69.9267 54.3769 69.94C55.1035 69.9267 55.7302 70.1767 56.2569 70.69C56.7902 71.2034 57.0502 71.8134 57.0369 72.52C57.0502 73.2267 56.7902 73.84 56.2569 74.36C55.7235 74.8734 55.0935 75.1234 54.3669 75.11C53.6402 75.1234 53.0135 74.8734 52.4869 74.36C51.9669 73.84 51.7135 73.2267 51.7269 72.52ZM55.2869 73.49C55.5335 73.2367 55.6569 72.9167 55.6569 72.53C55.6569 72.1434 55.5335 71.82 55.2869 71.56C55.0469 71.3 54.7435 71.17 54.3769 71.17C54.0035 71.17 53.6969 71.3 53.4569 71.56C53.2169 71.8134 53.0969 72.1367 53.0969 72.53C53.0969 72.9167 53.2169 73.2367 53.4569 73.49C53.6969 73.7434 54.0035 73.87 54.3769 73.87C54.7435 73.87 55.0469 73.7434 55.2869 73.49Z" fill="white"/>
<path d="M57.7109 72.52C57.6975 71.8134 57.9542 71.2034 58.4809 70.69C59.0075 70.1767 59.6342 69.9267 60.3609 69.94C61.0875 69.9267 61.7142 70.1767 62.2409 70.69C62.7742 71.2034 63.0342 71.8134 63.0209 72.52C63.0342 73.2267 62.7742 73.84 62.2409 74.36C61.7075 74.8734 61.0775 75.1234 60.3509 75.11C59.6242 75.1234 58.9975 74.8734 58.4709 74.36C57.9509 73.84 57.6975 73.2267 57.7109 72.52ZM61.2709 73.49C61.5175 73.2367 61.6409 72.9167 61.6409 72.53C61.6409 72.1434 61.5175 71.82 61.2709 71.56C61.0309 71.3 60.7275 71.17 60.3609 71.17C59.9875 71.17 59.6809 71.3 59.4409 71.56C59.2009 71.8134 59.0809 72.1367 59.0809 72.53C59.0809 72.9167 59.2009 73.2367 59.4409 73.49C59.6809 73.7434 59.9875 73.87 60.3609 73.87C60.7275 73.87 61.0309 73.7434 61.2709 73.49Z" fill="white"/>
<path d="M67.5748 67.5H68.9248V75H67.6848V74.39C67.3448 74.8767 66.8148 75.12 66.0948 75.12C65.4015 75.12 64.8282 74.8767 64.3748 74.39C63.9215 73.8967 63.6948 73.2767 63.6948 72.53C63.6948 71.7834 63.9215 71.1667 64.3748 70.68C64.8282 70.1867 65.4015 69.94 66.0948 69.94C66.7215 69.94 67.2148 70.1367 67.5748 70.53V67.5ZM67.2348 73.53C67.4748 73.29 67.5948 72.9567 67.5948 72.53C67.5948 72.1034 67.4748 71.77 67.2348 71.53C66.9948 71.2834 66.6982 71.16 66.3448 71.16C65.9782 71.16 65.6715 71.2867 65.4248 71.54C65.1848 71.7934 65.0648 72.12 65.0648 72.52C65.0648 72.9267 65.1848 73.2567 65.4248 73.51C65.6648 73.7634 65.9715 73.89 66.3448 73.89C66.7048 73.89 67.0015 73.77 67.2348 73.53Z" fill="white"/>
</svg>
