<svg width="101" height="95" viewBox="0 0 101 95" fill="none" xmlns="http://www.w3.org/2000/svg">
<circle cx="47.5" cy="47.5" r="47.5" fill="#FADDCD"/>
<rect x="58.1948" y="25.388" width="13.0071" height="5.20284" rx="1" fill="#DD080B"/>
<rect x="20.4742" y="29.2899" width="54.6298" height="40.322" rx="4" fill="#333B79"/>
<circle cx="47.7893" cy="50.1016" r="11.0071" stroke="#F4B612" stroke-width="4"/>
<rect x="25.6772" y="34.493" width="10.4057" height="3.90213" fill="#FADDCD"/>
<circle cx="86" cy="79" r="15" fill="#F7F6F7"/>
<path fill-rule="evenodd" clip-rule="evenodd" d="M88.8553 71.6249C89.3873 71.6249 89.8972 71.8373 90.2696 72.2127L92.7891 74.7322C93.1642 75.1073 93.375 75.6161 93.375 76.1466C93.375 76.6771 93.1642 77.1858 92.7891 77.5609L83.5904 86.7567C83.0229 87.4114 82.2184 87.8136 81.2968 87.8768L77.1249 87.8768L77.1249 87.0643L77.1276 83.6396C77.1968 82.7829 77.5951 81.9862 78.2027 81.4508L87.4399 72.2137C87.8145 71.8369 88.3239 71.6249 88.8553 71.6249ZM81.2394 86.2538C81.6734 86.2231 82.0775 86.0211 82.4019 85.6499L88.546 79.5059L85.4955 76.4553L79.3155 82.6339C78.9863 82.9251 78.7826 83.3324 78.7499 83.705L78.7499 86.2523L81.2394 86.2538ZM86.6447 75.3064L89.695 78.3568L91.64 76.4118C91.7104 76.3415 91.7499 76.246 91.7499 76.1465C91.7499 76.047 91.7104 75.9516 91.64 75.8812L89.1183 73.3595C89.0487 73.2893 88.954 73.2499 88.8552 73.2499C88.7564 73.2499 88.6617 73.2893 88.5922 73.3595L86.6447 75.3064Z" fill="#3A3A3A"/>
</svg>
