<svg width="30" height="30" viewBox="0 0 30 30" fill="none" xmlns="http://www.w3.org/2000/svg">
<circle cx="15" cy="15" r="15" fill="#F7F6F7"/>
<path fill-rule="evenodd" clip-rule="evenodd" d="M17.8553 7.625C18.3873 7.625 18.8972 7.83741 19.2696 8.21278L21.7891 10.7323C22.1642 11.1074 22.375 11.6161 22.375 12.1466C22.375 12.6771 22.1642 13.1859 21.7891 13.561L12.5904 22.7568C12.0229 23.4115 11.2184 23.8137 10.2968 23.8769L6.12494 23.8769L6.12494 23.0644L6.12758 19.6397C6.19679 18.7829 6.5951 17.9863 7.20272 17.4509L16.4399 8.21376C16.8145 7.83693 17.3239 7.625 17.8553 7.625ZM10.2394 22.2539C10.6734 22.2231 11.0775 22.0211 11.4019 21.65L17.546 15.5059L14.4955 12.4554L8.31546 18.634C7.98628 18.9251 7.78263 19.3324 7.74988 19.705L7.74988 22.2523L10.2394 22.2539ZM15.6447 11.3065L18.695 14.3569L20.64 12.4119C20.7104 12.3415 20.7499 12.2461 20.7499 12.1466C20.7499 12.0471 20.7104 11.9516 20.64 11.8813L18.1183 9.35951C18.0487 9.28939 17.954 9.24994 17.8552 9.24994C17.7564 9.24994 17.6617 9.28939 17.5922 9.35951L15.6447 11.3065Z" fill="#3A3A3A"/>
</svg>
