<svg width="22" height="22" viewBox="0 0 22 22" fill="none" xmlns="http://www.w3.org/2000/svg">
<path d="M18.7782 3.2218C16.7005 1.14421 13.9382 0 11 0C8.0618 0 5.29947 1.14421 3.2218 3.2218C1.14421 5.29947 0 8.0618 0 11C0 13.9382 1.14421 16.7005 3.2218 18.7782C5.29947 20.8558 8.0618 22 11 22C13.9382 22 16.7005 20.8558 18.7782 18.7782C20.8558 16.7005 22 13.9382 22 11C22 8.0618 20.8558 5.29947 18.7782 3.2218Z" fill="#283D80"/>
<path d="M15.8639 7.18372C15.2848 6.60466 14.515 6.28577 13.6961 6.28577C12.8772 6.28577 12.1073 6.60466 11.5283 7.18372L10.9999 7.71203L10.4716 7.18372C9.89257 6.60466 9.12271 6.28577 8.30379 6.28577C7.4849 6.28577 6.71501 6.60466 6.13599 7.18372C5.55693 7.76277 5.23804 8.53267 5.23804 9.35152C5.23804 10.1704 5.55693 10.9403 6.13599 11.5193L10.6296 16.0129C10.7319 16.1152 10.8659 16.1664 10.9999 16.1664C11.134 16.1664 11.2681 16.1152 11.3703 16.0129L15.8639 11.5193C16.443 10.9403 16.7618 10.1704 16.7618 9.35152C16.7618 8.53267 16.443 7.76277 15.8639 7.18372Z" fill="#FADDCD"/>
</svg>
