<svg width="22" height="22" viewBox="0 0 22 22" fill="none" xmlns="http://www.w3.org/2000/svg">
<path fill-rule="evenodd" clip-rule="evenodd" d="M11 20C15.9706 20 20 15.9706 20 11C20 6.02944 15.9706 2 11 2C6.02944 2 2 6.02944 2 11C2 15.9706 6.02944 20 11 20ZM11 22C17.0751 22 22 17.0751 22 11C22 4.92487 17.0751 0 11 0C4.92487 0 0 4.92487 0 11C0 17.0751 4.92487 22 11 22Z" fill="black" fill-opacity="0.15"/>
<path d="M10.2976 8.29961L11 8.99282L11.7024 8.29961L12.2984 7.71144C12.7631 7.25283 13.3787 7 14.0415 7C14.7043 7 15.3199 7.25283 15.7846 7.71144C16.2489 8.16962 16.5 8.77098 16.5 9.41309C16.5 10.0553 16.2489 10.6566 15.7846 11.1147L15.7846 11.1147L11 15.8365L6.2154 11.1147L6.21538 11.1147C5.75114 10.6566 5.5 10.0552 5.5 9.41309C5.5 8.77098 5.75113 8.16962 6.2154 7.71144L6.21542 7.71142C6.68007 7.25284 7.29566 7 7.95847 7C8.62131 7 9.23688 7.25283 9.70159 7.71144L10.3898 7.01408L9.70159 7.71144L10.2976 8.29961ZM10.7151 16.1177C10.7153 16.1175 10.7155 16.1173 10.7157 16.1171L10.7154 16.1174L10.7151 16.1177Z" stroke="black" stroke-opacity="0.15" stroke-width="2"/>
</svg>
