<svg width="26" height="23" viewBox="0 0 26 23" fill="none" xmlns="http://www.w3.org/2000/svg">
<path fill-rule="evenodd" clip-rule="evenodd" d="M14.0173 10.2141C11.6422 10.2141 9.64662 8.58647 9.08082 6.38374H0V3.83022H9.08085C9.6467 1.62755 11.6423 0 14.0173 0C16.8323 0 19.1143 2.2865 19.1143 5.10704C19.1143 7.92758 16.8323 10.2141 14.0173 10.2141ZM21.6631 6.38374V3.83022H25.4859V6.38374H21.6631ZM7.64571 22.9817C5.27071 22.9817 3.27511 21.3541 2.70928 19.1515H0V16.5979H2.70926C3.27507 14.3952 5.27069 12.7676 7.64571 12.7676C10.4607 12.7676 12.7427 15.0541 12.7427 17.8747C12.7427 20.6952 10.4607 22.9817 7.64571 22.9817ZM15.291 16.5979V19.1515H25.4851V16.5979H15.291ZM10.1942 17.8747C10.1942 19.285 9.05318 20.4282 7.64568 20.4282C6.23817 20.4282 5.09717 19.285 5.09717 17.8747C5.09717 16.4644 6.23817 15.3212 7.64568 15.3212C9.05318 15.3212 10.1942 16.4644 10.1942 17.8747ZM16.5653 5.10721C16.5653 6.51748 15.4243 7.66073 14.0168 7.66073C12.6093 7.66073 11.4683 6.51748 11.4683 5.10721C11.4683 3.69694 12.6093 2.55369 14.0168 2.55369C15.4243 2.55369 16.5653 3.69694 16.5653 5.10721Z" fill="#ffff"/>
</svg>
