<svg width="85" height="85" viewBox="0 0 85 85" fill="none" xmlns="http://www.w3.org/2000/svg">
<rect width="85" height="85" rx="17" fill="#FCB100"/>
<path d="M40.5678 12.0004L19.6553 45.0004H61.4804L40.5678 12.0004Z" fill="#FED2D6"/>
<rect width="22.2159" height="21" transform="matrix(-1 0 0 1 59.886 21.0003)" fill="#FAD06D"/>
<ellipse rx="10.142" ry="10.5" transform="matrix(-1 0 0 1 59.4031 36.5004)" fill="#DD080B"/>
<path d="M41.5341 64.0004C57.0043 64.0004 69.5454 52.3597 69.5454 38.0004H13.5227C13.5227 52.3597 26.0639 64.0004 41.5341 64.0004Z" fill="#333B79"/>
<path d="M16.7899 76V69.4H21.1299V70.62H18.1399V72.27H20.5899V73.49H18.1399V76H16.7899Z" fill="white"/>
<path d="M21.4273 73.52C21.414 72.8133 21.6707 72.2033 22.1973 71.69C22.724 71.1767 23.3507 70.9267 24.0773 70.94C24.804 70.9267 25.4307 71.1767 25.9573 71.69C26.4907 72.2033 26.7507 72.8133 26.7373 73.52C26.7507 74.2267 26.4907 74.84 25.9573 75.36C25.424 75.8733 24.794 76.1233 24.0673 76.11C23.3407 76.1233 22.714 75.8733 22.1873 75.36C21.6673 74.84 21.414 74.2267 21.4273 73.52ZM24.9873 74.49C25.234 74.2367 25.3573 73.9167 25.3573 73.53C25.3573 73.1433 25.234 72.82 24.9873 72.56C24.7473 72.3 24.444 72.17 24.0773 72.17C23.704 72.17 23.3973 72.3 23.1573 72.56C22.9173 72.8133 22.7973 73.1367 22.7973 73.53C22.7973 73.9167 22.9173 74.2367 23.1573 74.49C23.3973 74.7433 23.704 74.87 24.0773 74.87C24.444 74.87 24.7473 74.7433 24.9873 74.49Z" fill="white"/>
<path d="M27.4113 73.52C27.398 72.8133 27.6547 72.2033 28.1813 71.69C28.708 71.1767 29.3347 70.9267 30.0613 70.94C30.788 70.9267 31.4147 71.1767 31.9413 71.69C32.4747 72.2033 32.7347 72.8133 32.7213 73.52C32.7347 74.2267 32.4747 74.84 31.9413 75.36C31.408 75.8733 30.778 76.1233 30.0513 76.11C29.3247 76.1233 28.698 75.8733 28.1713 75.36C27.6513 74.84 27.398 74.2267 27.4113 73.52ZM30.9713 74.49C31.218 74.2367 31.3413 73.9167 31.3413 73.53C31.3413 73.1433 31.218 72.82 30.9713 72.56C30.7313 72.3 30.428 72.17 30.0613 72.17C29.688 72.17 29.3813 72.3 29.1413 72.56C28.9013 72.8133 28.7813 73.1367 28.7813 73.53C28.7813 73.9167 28.9013 74.2367 29.1413 74.49C29.3813 74.7433 29.688 74.87 30.0613 74.87C30.428 74.87 30.7313 74.7433 30.9713 74.49Z" fill="white"/>
<path d="M37.2753 68.5H38.6253V76H37.3853V75.39C37.0453 75.8767 36.5153 76.12 35.7953 76.12C35.102 76.12 34.5286 75.8767 34.0753 75.39C33.622 74.8967 33.3953 74.2767 33.3953 73.53C33.3953 72.7833 33.622 72.1667 34.0753 71.68C34.5286 71.1867 35.102 70.94 35.7953 70.94C36.422 70.94 36.9153 71.1367 37.2753 71.53V68.5ZM36.9353 74.53C37.1753 74.29 37.2953 73.9567 37.2953 73.53C37.2953 73.1033 37.1753 72.77 36.9353 72.53C36.6953 72.2833 36.3986 72.16 36.0453 72.16C35.6786 72.16 35.372 72.2867 35.1253 72.54C34.8853 72.7933 34.7653 73.12 34.7653 73.52C34.7653 73.9267 34.8853 74.2567 35.1253 74.51C35.3653 74.7633 35.672 74.89 36.0453 74.89C36.4053 74.89 36.702 74.77 36.9353 74.53Z" fill="white"/>
<path d="M50.1971 72.93V76H48.8471V73.12C48.8471 72.8267 48.7671 72.5933 48.6071 72.42C48.4471 72.2467 48.2338 72.16 47.9671 72.16C47.7004 72.16 47.4804 72.2467 47.3071 72.42C47.1404 72.5933 47.0571 72.8167 47.0571 73.09V76H45.7071V73.12C45.7071 72.8267 45.6271 72.5933 45.4671 72.42C45.3071 72.2467 45.0938 72.16 44.8271 72.16C44.5538 72.16 44.3338 72.2467 44.1671 72.42C44.0004 72.5933 43.9171 72.8267 43.9171 73.12V76H42.5671V71.05H43.8071V71.49C44.1538 71.1233 44.6204 70.94 45.2071 70.94C45.8538 70.94 46.3438 71.1767 46.6771 71.65C47.0971 71.1767 47.6471 70.94 48.3271 70.94C48.9004 70.94 49.3538 71.12 49.6871 71.48C50.0271 71.84 50.1971 72.3233 50.1971 72.93Z" fill="white"/>
<path d="M51.1031 73.52C51.0898 72.8133 51.3465 72.2033 51.8731 71.69C52.3998 71.1767 53.0265 70.9267 53.7531 70.94C54.4798 70.9267 55.1065 71.1767 55.6331 71.69C56.1665 72.2033 56.4265 72.8133 56.4131 73.52C56.4265 74.2267 56.1665 74.84 55.6331 75.36C55.0998 75.8733 54.4698 76.1233 53.7431 76.11C53.0165 76.1233 52.3898 75.8733 51.8631 75.36C51.3431 74.84 51.0898 74.2267 51.1031 73.52ZM54.6631 74.49C54.9098 74.2367 55.0331 73.9167 55.0331 73.53C55.0331 73.1433 54.9098 72.82 54.6631 72.56C54.4231 72.3 54.1198 72.17 53.7531 72.17C53.3798 72.17 53.0731 72.3 52.8331 72.56C52.5931 72.8133 52.4731 73.1367 52.4731 73.53C52.4731 73.9167 52.5931 74.2367 52.8331 74.49C53.0731 74.7433 53.3798 74.87 53.7531 74.87C54.1198 74.87 54.4231 74.7433 54.6631 74.49Z" fill="white"/>
<path d="M57.0871 73.52C57.0738 72.8133 57.3304 72.2033 57.8571 71.69C58.3838 71.1767 59.0104 70.9267 59.7371 70.94C60.4638 70.9267 61.0904 71.1767 61.6171 71.69C62.1504 72.2033 62.4104 72.8133 62.3971 73.52C62.4104 74.2267 62.1504 74.84 61.6171 75.36C61.0838 75.8733 60.4538 76.1233 59.7271 76.11C59.0004 76.1233 58.3738 75.8733 57.8471 75.36C57.3271 74.84 57.0738 74.2267 57.0871 73.52ZM60.6471 74.49C60.8938 74.2367 61.0171 73.9167 61.0171 73.53C61.0171 73.1433 60.8938 72.82 60.6471 72.56C60.4071 72.3 60.1038 72.17 59.7371 72.17C59.3638 72.17 59.0571 72.3 58.8171 72.56C58.5771 72.8133 58.4571 73.1367 58.4571 73.53C58.4571 73.9167 58.5771 74.2367 58.8171 74.49C59.0571 74.7433 59.3638 74.87 59.7371 74.87C60.1038 74.87 60.4071 74.7433 60.6471 74.49Z" fill="white"/>
<path d="M66.9511 68.5H68.3011V76H67.0611V75.39C66.7211 75.8767 66.1911 76.12 65.4711 76.12C64.7778 76.12 64.2044 75.8767 63.7511 75.39C63.2978 74.8967 63.0711 74.2767 63.0711 73.53C63.0711 72.7833 63.2978 72.1667 63.7511 71.68C64.2044 71.1867 64.7778 70.94 65.4711 70.94C66.0978 70.94 66.5911 71.1367 66.9511 71.53V68.5ZM66.6111 74.53C66.8511 74.29 66.9711 73.9567 66.9711 73.53C66.9711 73.1033 66.8511 72.77 66.6111 72.53C66.3711 72.2833 66.0744 72.16 65.7211 72.16C65.3544 72.16 65.0478 72.2867 64.8011 72.54C64.5611 72.7933 64.4411 73.12 64.4411 73.52C64.4411 73.9267 64.5611 74.2567 64.8011 74.51C65.0411 74.7633 65.3478 74.89 65.7211 74.89C66.0811 74.89 66.3778 74.77 66.6111 74.53Z" fill="white"/>
</svg>
