<svg width="33" height="33" viewBox="0 0 33 33" fill="none" xmlns="http://www.w3.org/2000/svg">
<path fill-rule="evenodd" clip-rule="evenodd" d="M23.0759 2.06253C20.909 2.0625 19.4845 2.31324 17.8552 3.07273C17.3743 3.29695 16.9161 3.55774 16.4825 3.85454C16.0709 3.57775 15.637 3.33203 15.1822 3.11781C13.5235 2.3365 12.0284 2.0625 9.9375 2.0625C4.2044 2.0625 0 6.62806 0 12.5398C0 16.9701 2.55036 21.1781 7.24298 25.1977C9.67324 27.2794 12.7689 29.3346 15.0008 30.4353L16.5 31.1747L17.9992 30.4353C20.2311 29.3346 23.3268 27.2794 25.757 25.1977C30.4496 21.1781 33 16.9701 33 12.5398C33 6.6869 28.7594 2.08494 23.0759 2.06253ZM28.875 12.5398C28.875 15.5592 26.9387 18.7541 23.0735 22.0649C21.0216 23.8225 18.4018 25.5836 16.5 26.571C14.5982 25.5836 11.9784 23.8225 9.92646 22.0649C6.06132 18.7541 4.125 15.5592 4.125 12.5398C4.125 8.83379 6.56196 6.1875 9.9375 6.1875C11.4639 6.1875 12.3724 6.354 13.4244 6.84953C14.0316 7.13557 14.5645 7.51056 15.0245 7.97787L16.5069 9.48402L17.9765 7.96531C18.4468 7.47934 18.9863 7.09668 19.5981 6.81145C20.6163 6.33683 21.4646 6.1875 23.0677 6.18751C26.3966 6.20066 28.875 8.89022 28.875 12.5398Z" fill="black" fill-opacity="0.15"/>
</svg>
