<svg width="25" height="25" viewBox="0 0 25 25" fill="none" xmlns="http://www.w3.org/2000/svg">
<path fill-rule="evenodd" clip-rule="evenodd" d="M11.4583 4.16665V20.8333C11.4583 21.9839 10.5256 22.9166 9.37498 22.9166H4.16665C3.01605 22.9166 2.08331 21.9839 2.08331 20.8333V4.16665C2.08331 3.01605 3.01605 2.08331 4.16665 2.08331H9.37498C10.5256 2.08331 11.4583 3.01605 11.4583 4.16665Z" fill="#FADDCD"/>
<path fill-rule="evenodd" clip-rule="evenodd" d="M20.8332 13.5416H15.6248C14.4742 13.5416 13.5415 14.4743 13.5415 15.6249V20.8332C13.5415 21.9838 14.4742 22.9166 15.6248 22.9166H20.8332C21.9838 22.9166 22.9165 21.9838 22.9165 20.8332V15.6249C22.9165 14.4743 21.9838 13.5416 20.8332 13.5416Z" fill="#333B79"/>
<path fill-rule="evenodd" clip-rule="evenodd" d="M20.8332 2.08325H15.6248C14.4742 2.08325 13.5415 3.01599 13.5415 4.16659V9.37492C13.5415 10.5255 14.4742 11.4583 15.6248 11.4583H20.8332C21.9838 11.4583 22.9165 10.5255 22.9165 9.37492V4.16659C22.9165 3.01599 21.9838 2.08325 20.8332 2.08325Z" fill="#F4B612"/>
</svg>
