<svg width="22" height="21" viewBox="0 0 22 21" fill="none" xmlns="http://www.w3.org/2000/svg">
<path fill-rule="evenodd" clip-rule="evenodd" d="M19.6722 10.5678C19.2507 10.1678 18.5551 10.4666 18.5551 11.0477V19C18.5551 20.1046 17.6597 21 16.5551 21H4.55514C3.45057 21 2.55514 20.1046 2.55514 19V11.0477C2.55514 10.4666 1.8596 10.1678 1.43806 10.5678C1.18276 10.8101 0.782471 10.8101 0.527171 10.5678L0.306222 10.3581C-0.102074 9.97065 -0.102074 9.32006 0.306221 8.9326L9.12786 0.561039C9.52199 0.187013 10.0386 0 10.5551 0C11.0717 0 11.5883 0.187013 11.9824 0.561039L20.8041 8.9326C21.2124 9.32006 21.2124 9.97065 20.8041 10.3581L20.5831 10.5678C20.3278 10.8101 19.9275 10.8101 19.6722 10.5678Z" fill="#333B79"/>
<rect x="7" y="10" width="7" height="7" rx="1" fill="#FADDCD"/>
</svg>
