<svg width="85" height="89" viewBox="0 0 85 89" fill="none" xmlns="http://www.w3.org/2000/svg">
<g filter="url(#filter0_d)">
<mask id="path-1-inside-1" fill="white">
<path fill-rule="evenodd" clip-rule="evenodd" d="M48.8764 67.2129C63.7725 64.3951 75 51.8962 75 36.9037C75 19.8361 60.4493 6 42.5 6C24.5507 6 10 19.8361 10 36.9037C10 51.8962 21.2274 64.3951 36.1234 67.2129L40.8792 73.7906C41.6776 74.8949 43.3223 74.8949 44.1207 73.7906L48.8764 67.2129Z"/>
</mask>
<path fill-rule="evenodd" clip-rule="evenodd" d="M48.8764 67.2129C63.7725 64.3951 75 51.8962 75 36.9037C75 19.8361 60.4493 6 42.5 6C24.5507 6 10 19.8361 10 36.9037C10 51.8962 21.2274 64.3951 36.1234 67.2129L40.8792 73.7906C41.6776 74.8949 43.3223 74.8949 44.1207 73.7906L48.8764 67.2129Z" fill="#7995DD"/>
<path d="M48.8764 67.2129L48.5047 65.2478L47.7222 65.3958L47.2557 66.0411L48.8764 67.2129ZM36.1234 67.2129L37.7442 66.0411L37.2776 65.3958L36.4952 65.2477L36.1234 67.2129ZM40.8792 73.7906L42.4999 72.6188L40.8792 73.7906ZM44.1207 73.7906L42.4999 72.6188L42.4999 72.6188L44.1207 73.7906ZM73 36.9037C73 50.848 62.5444 62.592 48.5047 65.2478L49.2482 69.1781C65.0006 66.1983 77 52.9444 77 36.9037H73ZM42.5 8C59.4408 8 73 21.0344 73 36.9037H77C77 18.6378 61.4577 4 42.5 4V8ZM12 36.9037C12 21.0344 25.5592 8 42.5 8V4C23.5423 4 8 18.6378 8 36.9037H12ZM36.4952 65.2477C22.4555 62.5919 12 50.848 12 36.9037H8C8 52.9443 19.9993 66.1982 35.7517 69.178L36.4952 65.2477ZM42.4999 72.6188L37.7442 66.0411L34.5027 68.3847L39.2584 74.9624L42.4999 72.6188ZM42.4999 72.6188L42.4999 72.6188L39.2584 74.9624C40.8552 77.1709 44.1447 77.1709 45.7414 74.9624L42.4999 72.6188ZM47.2557 66.0411L42.4999 72.6188L45.7414 74.9624L50.4972 68.3847L47.2557 66.0411Z" fill="white" mask="url(#path-1-inside-1)"/>
</g>
<rect x="37.9491" y="24.9431" width="7.64297" height="7.64297" fill="#283D80"/>
<rect x="50.9425" y="24.1787" width="9.17157" height="9.17157" fill="#DD080B"/>
<rect x="45.5924" y="34.1143" width="12.2288" height="12.2288" fill="#F4B612"/>
<ellipse cx="51.7068" cy="24.9425" rx="6.11438" ry="6.11438" fill="#333B79"/>
<path d="M38.7137 27.9999V20.3569M50.1782 32.5857L60.8784 22.6498M54.764 44.0501H63.9355" stroke="#3A3A3A" stroke-width="2"/>
<path d="M26.2288 55.7713L34.7952 26.024L55.9761 47.2048L26.2288 55.7713Z" fill="#DD080B"/>
<defs>
<filter id="filter0_d" x="0" y="0" width="85" height="88.6188" filterUnits="userSpaceOnUse" color-interpolation-filters="sRGB">
<feFlood flood-opacity="0" result="BackgroundImageFix"/>
<feColorMatrix in="SourceAlpha" type="matrix" values="0 0 0 0 0 0 0 0 0 0 0 0 0 0 0 0 0 0 127 0"/>
<feOffset dy="4"/>
<feGaussianBlur stdDeviation="5"/>
<feColorMatrix type="matrix" values="0 0 0 0 0.0392157 0 0 0 0 0.172549 0 0 0 0 0.486275 0 0 0 0.15 0"/>
<feBlend mode="normal" in2="BackgroundImageFix" result="effect1_dropShadow"/>
<feBlend mode="normal" in="SourceGraphic" in2="effect1_dropShadow" result="shape"/>
</filter>
</defs>
</svg>
