<svg width="85" height="89" viewBox="0 0 85 89" fill="none" xmlns="http://www.w3.org/2000/svg">
<g filter="url(#filter0_d)">
<mask id="path-1-inside-1" fill="white">
<path fill-rule="evenodd" clip-rule="evenodd" d="M48.8764 67.2129C63.7725 64.3951 75 51.8962 75 36.9037C75 19.8361 60.4493 6 42.5 6C24.5507 6 10 19.8361 10 36.9037C10 51.8962 21.2274 64.3951 36.1234 67.2129L40.8792 73.7906C41.6776 74.8949 43.3223 74.8949 44.1207 73.7906L48.8764 67.2129Z"/>
</mask>
<path fill-rule="evenodd" clip-rule="evenodd" d="M48.8764 67.2129C63.7725 64.3951 75 51.8962 75 36.9037C75 19.8361 60.4493 6 42.5 6C24.5507 6 10 19.8361 10 36.9037C10 51.8962 21.2274 64.3951 36.1234 67.2129L40.8792 73.7906C41.6776 74.8949 43.3223 74.8949 44.1207 73.7906L48.8764 67.2129Z" fill="#DD080B"/>
<path d="M48.8764 67.2129L48.5047 65.2478L47.7222 65.3958L47.2557 66.0411L48.8764 67.2129ZM36.1234 67.2129L37.7442 66.0411L37.2776 65.3958L36.4952 65.2477L36.1234 67.2129ZM40.8792 73.7906L42.4999 72.6188L40.8792 73.7906ZM44.1207 73.7906L42.4999 72.6188L42.4999 72.6188L44.1207 73.7906ZM73 36.9037C73 50.848 62.5444 62.592 48.5047 65.2478L49.2482 69.1781C65.0006 66.1983 77 52.9444 77 36.9037H73ZM42.5 8C59.4408 8 73 21.0344 73 36.9037H77C77 18.6378 61.4577 4 42.5 4V8ZM12 36.9037C12 21.0344 25.5592 8 42.5 8V4C23.5423 4 8 18.6378 8 36.9037H12ZM36.4952 65.2477C22.4555 62.5919 12 50.848 12 36.9037H8C8 52.9443 19.9993 66.1982 35.7517 69.178L36.4952 65.2477ZM42.4999 72.6188L37.7442 66.0411L34.5027 68.3847L39.2584 74.9624L42.4999 72.6188ZM42.4999 72.6188L42.4999 72.6188L39.2584 74.9624C40.8552 77.1709 44.1447 77.1709 45.7414 74.9624L42.4999 72.6188ZM47.2557 66.0411L42.4999 72.6188L45.7414 74.9624L50.4972 68.3847L47.2557 66.0411Z" fill="white" mask="url(#path-1-inside-1)"/>
</g>
<path d="M33.1642 43.6658C33.1642 46.9702 30.5979 49.5253 27.5821 49.5253C24.5663 49.5253 22 46.9702 22 43.6658C22 40.3613 24.5663 37.8063 27.5821 37.8063C30.5979 37.8063 33.1642 40.3613 33.1642 43.6658Z" stroke="#F4B612" stroke-width="4"/>
<path d="M64.0343 43.6658C64.0343 46.9702 61.468 49.5253 58.4522 49.5253C55.4364 49.5253 52.8701 46.9702 52.8701 43.6658C52.8701 40.3613 55.4364 37.8063 58.4522 37.8063C61.468 37.8063 64.0343 40.3613 64.0343 43.6658Z" stroke="#F4B612" stroke-width="4"/>
<path d="M35.1643 27.9467L27.5822 43.6657H42.7464M35.1643 27.9467H50.3285M35.1643 27.9467L42.7464 43.6657M35.1643 27.9467L33.5395 24.5784M42.7464 43.6657L50.3285 27.9467M50.3285 27.9467L58.1814 43.6657M50.3285 27.9467L51.9532 24.5784" stroke="#333B79" stroke-width="3" stroke-linecap="round" stroke-linejoin="round"/>
<rect x="29.2068" y="22.3328" width="9.20685" height="2.24557" fill="#FADDCD"/>
<rect width="9.4606" height="2.1864" transform="matrix(0.486589 0.873631 -0.85807 0.513532 51.3606 19)" fill="#FADDCD"/>
<defs>
<filter id="filter0_d" x="0" y="0" width="85" height="88.6188" filterUnits="userSpaceOnUse" color-interpolation-filters="sRGB">
<feFlood flood-opacity="0" result="BackgroundImageFix"/>
<feColorMatrix in="SourceAlpha" type="matrix" values="0 0 0 0 0 0 0 0 0 0 0 0 0 0 0 0 0 0 127 0"/>
<feOffset dy="4"/>
<feGaussianBlur stdDeviation="5"/>
<feColorMatrix type="matrix" values="0 0 0 0 0.0392157 0 0 0 0 0.172549 0 0 0 0 0.486275 0 0 0 0.15 0"/>
<feBlend mode="normal" in2="BackgroundImageFix" result="effect1_dropShadow"/>
<feBlend mode="normal" in="SourceGraphic" in2="effect1_dropShadow" result="shape"/>
</filter>
</defs>
</svg>
