<svg width="85" height="89" viewBox="0 0 85 89" fill="none" xmlns="http://www.w3.org/2000/svg">
<g filter="url(#filter0_d)">
<mask id="path-1-inside-1" fill="white">
<path fill-rule="evenodd" clip-rule="evenodd" d="M48.8764 67.2129C63.7725 64.3951 75 51.8962 75 36.9037C75 19.8361 60.4493 6 42.5 6C24.5507 6 10 19.8361 10 36.9037C10 51.8962 21.2274 64.3951 36.1234 67.2129L40.8792 73.7906C41.6776 74.8949 43.3223 74.8949 44.1207 73.7906L48.8764 67.2129Z"/>
</mask>
<path fill-rule="evenodd" clip-rule="evenodd" d="M48.8764 67.2129C63.7725 64.3951 75 51.8962 75 36.9037C75 19.8361 60.4493 6 42.5 6C24.5507 6 10 19.8361 10 36.9037C10 51.8962 21.2274 64.3951 36.1234 67.2129L40.8792 73.7906C41.6776 74.8949 43.3223 74.8949 44.1207 73.7906L48.8764 67.2129Z" fill="#333B79"/>
<path d="M48.8764 67.2129L48.5047 65.2478L47.7222 65.3958L47.2557 66.0411L48.8764 67.2129ZM36.1234 67.2129L37.7442 66.0411L37.2776 65.3958L36.4952 65.2477L36.1234 67.2129ZM40.8792 73.7906L42.4999 72.6188L40.8792 73.7906ZM44.1207 73.7906L42.4999 72.6188L42.4999 72.6188L44.1207 73.7906ZM73 36.9037C73 50.848 62.5444 62.592 48.5047 65.2478L49.2482 69.1781C65.0006 66.1983 77 52.9444 77 36.9037H73ZM42.5 8C59.4408 8 73 21.0344 73 36.9037H77C77 18.6378 61.4577 4 42.5 4V8ZM12 36.9037C12 21.0344 25.5592 8 42.5 8V4C23.5423 4 8 18.6378 8 36.9037H12ZM36.4952 65.2477C22.4555 62.5919 12 50.848 12 36.9037H8C8 52.9443 19.9993 66.1982 35.7517 69.178L36.4952 65.2477ZM42.4999 72.6188L37.7442 66.0411L34.5027 68.3847L39.2584 74.9624L42.4999 72.6188ZM42.4999 72.6188L42.4999 72.6188L39.2584 74.9624C40.8552 77.1709 44.1447 77.1709 45.7414 74.9624L42.4999 72.6188ZM47.2557 66.0411L42.4999 72.6188L45.7414 74.9624L50.4972 68.3847L47.2557 66.0411Z" fill="white" mask="url(#path-1-inside-1)"/>
</g>
<path d="M41.8418 42.8496V54.5852" stroke="#FAD06D" stroke-width="3" stroke-linecap="round"/>
<path d="M41.7863 43.7256L59.3741 26.7593L24.1985 26.7593L41.7863 43.7256Z" fill="#FAD06D"/>
<rect width="9.28396" height="12.1385" transform="matrix(-1 0 0 1 53.3915 20.552)" fill="#DD080B"/>
<ellipse rx="6.96297" ry="6.62098" transform="matrix(-1 0 0 1 56.2931 29.9318)" fill="#F4B612"/>
<path d="M39.8737 39.5C40.1318 39.7471 40.2608 39.8707 40.3862 39.9585C41.075 40.4409 41.992 40.4409 42.6808 39.9585C42.8062 39.8707 42.9353 39.7471 43.1934 39.5L48.7067 34.2207C49.3014 33.6513 49.5987 33.3665 49.7275 33.1653C50.4678 32.0086 49.8487 30.467 48.5141 30.1435C48.2819 30.0872 47.8702 30.0872 47.0469 30.0872L36.0202 30.0872C35.1968 30.0872 34.7852 30.0872 34.553 30.1435C33.2183 30.467 32.5992 32.0086 33.3395 33.1653C33.4683 33.3665 33.7656 33.6513 34.3603 34.2207L39.8737 39.5Z" fill="#FD7EA1"/>
<path d="M42.1506 52.2382L35.4705 55.7588L48.8308 55.7588L42.1506 52.2382Z" fill="#FAD06D"/>
<defs>
<filter id="filter0_d" x="0" y="0" width="85" height="88.6188" filterUnits="userSpaceOnUse" color-interpolation-filters="sRGB">
<feFlood flood-opacity="0" result="BackgroundImageFix"/>
<feColorMatrix in="SourceAlpha" type="matrix" values="0 0 0 0 0 0 0 0 0 0 0 0 0 0 0 0 0 0 127 0"/>
<feOffset dy="4"/>
<feGaussianBlur stdDeviation="5"/>
<feColorMatrix type="matrix" values="0 0 0 0 0.0392157 0 0 0 0 0.172549 0 0 0 0 0.486275 0 0 0 0.15 0"/>
<feBlend mode="normal" in2="BackgroundImageFix" result="effect1_dropShadow"/>
<feBlend mode="normal" in="SourceGraphic" in2="effect1_dropShadow" result="shape"/>
</filter>
</defs>
</svg>
