<svg width="24" height="23" viewBox="0 0 24 23" fill="none" xmlns="http://www.w3.org/2000/svg">
<path d="M10.1279 1.56104L10.8162 2.28641V2.28641L10.1279 1.56104ZM12.9824 1.56104L13.6708 0.83567V0.83567L12.9824 1.56104ZM21.8041 9.9326L21.1157 10.658L21.8041 9.9326ZM21.8041 11.3581L22.4924 12.0835L21.8041 11.3581ZM1.30622 11.3581L1.99458 10.6327L1.30622 11.3581ZM20.5551 20V12.0477H18.5551V20H20.5551ZM5.55514 23H17.5551V21H5.55514V23ZM2.55514 12.0477V20H4.55514V12.0477H2.55514ZM2.21553 10.8424L1.99458 10.6327L0.617862 12.0835L0.838811 12.2932L2.21553 10.8424ZM1.99458 10.658L10.8162 2.28641L9.4395 0.83567L0.617861 9.20723L1.99458 10.658ZM10.8162 2.28641C11.012 2.10064 11.2769 2 11.5551 2V0C10.8003 0 10.032 0.273391 9.43949 0.83567L10.8162 2.28641ZM11.5551 2C11.8334 2 12.0983 2.10063 12.2941 2.28641L13.6708 0.83567C13.0783 0.273391 12.31 0 11.5551 0V2ZM12.2941 2.28641L21.1157 10.658L22.4924 9.20723L13.6708 0.83567L12.2941 2.28641ZM21.1157 10.6327L20.8948 10.8424L22.2715 12.2932L22.4924 12.0835L21.1157 10.6327ZM20.8948 10.8424C21.0253 10.7185 21.23 10.7185 21.3606 10.8424L19.9839 12.2932C20.625 12.9016 21.6303 12.9016 22.2715 12.2932L20.8948 10.8424ZM21.1157 10.658C21.1159 10.6582 21.1152 10.6575 21.1142 10.6561C21.1133 10.6547 21.1124 10.6531 21.1117 10.6515C21.1105 10.6485 21.1103 10.6464 21.1103 10.6454C21.1103 10.6443 21.1105 10.6422 21.1117 10.6392C21.1124 10.6376 21.1133 10.6361 21.1142 10.6346C21.1152 10.6332 21.1159 10.6325 21.1157 10.6327L22.4924 12.0835C23.3162 11.3017 23.3162 9.98901 22.4924 9.20723L21.1157 10.658ZM1.99458 10.6327C1.99437 10.6325 1.99505 10.6332 1.99606 10.6346C1.99703 10.6361 1.9979 10.6376 1.99856 10.6392C1.99982 10.6422 2 10.6443 2 10.6454C2 10.6464 1.99982 10.6485 1.99856 10.6515C1.9979 10.6531 1.99703 10.6547 1.99606 10.6561C1.99505 10.6575 1.99437 10.6582 1.99458 10.658L0.617861 9.20723C-0.205954 9.98901 -0.205953 11.3017 0.617862 12.0835L1.99458 10.6327ZM1.7497 10.8424C1.88026 10.7185 2.08497 10.7185 2.21553 10.8424L0.838811 12.2932C1.47997 12.9016 2.48526 12.9016 3.12642 12.2932L1.7497 10.8424ZM4.55514 12.0477C4.55514 10.5882 2.80836 9.83777 1.7497 10.8424L3.12642 12.2932C2.91084 12.4977 2.55514 12.3449 2.55514 12.0477H4.55514ZM5.55514 21C5.00286 21 4.55514 20.5523 4.55514 20H2.55514C2.55514 21.6569 3.89829 23 5.55514 23V21ZM20.5551 12.0477C20.5551 12.3449 20.1994 12.4977 19.9839 12.2932L21.3606 10.8424C20.3019 9.83778 18.5551 10.5882 18.5551 12.0477H20.5551ZM18.5551 20C18.5551 20.5523 18.1074 21 17.5551 21V23C19.212 23 20.5551 21.6569 20.5551 20H18.5551Z" fill="black" fill-opacity="0.15"/>
<rect x="8" y="11" width="7" height="7" rx="1" stroke="black" stroke-opacity="0.15" stroke-width="2"/>
</svg>
