<svg width="20" height="21" viewBox="0 0 20 21" fill="none" xmlns="http://www.w3.org/2000/svg">
<path fill-rule="evenodd" clip-rule="evenodd" d="M10 20.3448C4.47715 20.3448 0 15.7905 0 10.1724C0 4.55434 4.47715 0 10 0C15.5228 0 20 4.55434 20 10.1724C20 15.7905 15.5228 20.3448 10 20.3448ZM10 17.8017C14.1421 17.8017 17.5 14.386 17.5 10.1724C17.5 5.95886 14.1421 2.5431 10 2.5431C5.85786 2.5431 2.5 5.95886 2.5 10.1724C2.5 14.386 5.85786 17.8017 10 17.8017ZM15 8.90086H11.25V5.08621H8.75V8.90086H5V11.444H8.75V15.2586H11.25V11.444H15V8.90086Z" fill="white"/>
</svg>
