<svg width="22" height="22" viewBox="0 0 22 22" fill="none" xmlns="http://www.w3.org/2000/svg">
<g clip-path="url(#clip0)">
<path fill-rule="evenodd" clip-rule="evenodd" d="M3.64157 11.0867C3.57122 11.0691 3.51851 11.0107 3.50826 10.9389L2.36513 2.93699C2.25105 2.13844 3.08079 1.54039 3.80229 1.90115L20.7307 10.3653C21.4677 10.7339 21.4677 11.7857 20.7307 12.1542L3.80229 20.6184C3.08079 20.9791 2.25105 20.3811 2.36513 19.5825L3.50826 11.5806C3.51851 11.5088 3.57122 11.4504 3.64157 11.4328C3.82171 11.3878 3.82171 11.1318 3.64157 11.0867Z" fill="#333B79"/>
<path fill-rule="evenodd" clip-rule="evenodd" d="M6.44206 5.5635C5.72056 5.20275 4.89082 5.80079 5.0049 6.59935L5.30513 8.70096C5.36263 9.10346 5.6581 9.43107 6.05254 9.52968L9.0921 10.2896C10.102 10.5421 10.1021 11.9774 9.0921 12.2299L6.05254 12.9897C5.6581 13.0884 5.36263 13.416 5.30513 13.8185L5.0049 15.9201C4.89082 16.7186 5.72056 17.3167 6.44206 16.9559L16.0456 12.1541C16.7827 11.7856 16.7827 10.7338 16.0456 10.3653L6.44206 5.5635Z" fill="#FADDCD"/>
</g>
<defs>
<clipPath id="clip0">
<path d="M0 4C0 1.79086 1.79086 0 4 0H18C20.2091 0 22 1.79086 22 4V18C22 20.2091 20.2091 22 18 22H4C1.79086 22 0 20.2091 0 18V4Z" fill="white"/>
</clipPath>
</defs>
</svg>
