<svg width="22" height="22" viewBox="0 0 22 22" fill="none" xmlns="http://www.w3.org/2000/svg">
<path fill-rule="evenodd" clip-rule="evenodd" d="M6.44208 5.56348C5.72058 5.20273 4.89084 5.80078 5.00492 6.59933L5.30515 8.70094C5.36265 9.10344 5.65812 9.43105 6.05256 9.52966L9.09212 10.2896C10.1021 10.542 10.1021 11.9774 9.09212 12.2298L6.05256 12.9897C5.65812 13.0883 5.36265 13.416 5.30515 13.8184L5.00492 15.9201C4.89084 16.7186 5.72058 17.3167 6.44208 16.9559L16.0457 12.1541C16.7827 11.7856 16.7827 10.7338 16.0457 10.3653L6.44208 5.56348ZM3.64164 11.0867C3.57129 11.0691 3.51859 11.0106 3.50833 10.9389L2.3652 2.93694C2.25112 2.13839 3.08086 1.54034 3.80236 1.90109L20.7307 10.3653C21.4678 10.7338 21.4678 11.7856 20.7307 12.1541L3.80236 20.6183C3.08086 20.9791 2.25112 20.381 2.3652 19.5825L3.50833 11.5806C3.51859 11.5088 3.57129 11.4503 3.64164 11.4327C3.82178 11.3877 3.82178 11.1317 3.64164 11.0867Z" fill="black" fill-opacity="0.15"/>
</svg>
