<svg width="86" height="85" viewBox="0 0 86 85" fill="none" xmlns="http://www.w3.org/2000/svg">
<rect x="0.625" width="85" height="85" rx="17" fill="#FADDCD"/>
<path d="M17.7009 71.7C17.6876 70.76 18.0276 69.95 18.7209 69.27C19.4209 68.59 20.2476 68.26 21.2009 68.28C22.1543 68.26 22.9809 68.59 23.6809 69.27C24.3876 69.95 24.7343 70.76 24.7209 71.7C24.7343 72.64 24.3876 73.45 23.6809 74.13C22.9809 74.81 22.1543 75.14 21.2009 75.12C20.2476 75.14 19.4209 74.81 18.7209 74.13C18.0276 73.45 17.6876 72.64 17.7009 71.7ZM23.3309 71.7C23.3309 71.0734 23.1276 70.5567 22.7209 70.15C22.3209 69.7367 21.8176 69.53 21.2109 69.53C20.5976 69.53 20.0909 69.7334 19.6909 70.14C19.2909 70.5467 19.0909 71.0667 19.0909 71.7C19.0909 72.3334 19.2909 72.8534 19.6909 73.26C20.0909 73.6667 20.5976 73.87 21.2109 73.87C21.8176 73.87 22.3209 73.6667 22.7209 73.26C23.1276 72.8534 23.3309 72.3334 23.3309 71.7Z" fill="white"/>
<path d="M30.2141 70.68C30.6741 71.1667 30.9041 71.78 30.9041 72.52C30.9041 73.26 30.6741 73.88 30.2141 74.38C29.7608 74.8734 29.1908 75.12 28.5041 75.12C27.8841 75.12 27.3908 74.92 27.0241 74.52V76.8H25.6741V70.05H26.9141V70.67C27.2541 70.1834 27.7841 69.94 28.5041 69.94C29.1908 69.94 29.7608 70.1867 30.2141 70.68ZM29.5341 72.53C29.5341 72.1234 29.4141 71.7934 29.1741 71.54C28.9341 71.2867 28.6275 71.16 28.2541 71.16C27.8941 71.16 27.5941 71.28 27.3541 71.52C27.1208 71.76 27.0041 72.0934 27.0041 72.52C27.0041 72.9467 27.1208 73.2834 27.3541 73.53C27.5941 73.77 27.8941 73.89 28.2541 73.89C28.6208 73.89 28.9241 73.7634 29.1641 73.51C29.4108 73.2567 29.5341 72.93 29.5341 72.53Z" fill="white"/>
<path d="M36.4132 72.98H32.9432C33.0232 73.2934 33.1832 73.5367 33.4232 73.71C33.6699 73.8767 33.9732 73.96 34.3332 73.96C34.8199 73.96 35.2799 73.7934 35.7132 73.46L36.2732 74.38C35.6799 74.8734 35.0199 75.12 34.2932 75.12C33.5332 75.1334 32.8865 74.8867 32.3532 74.38C31.8265 73.8667 31.5699 73.25 31.5832 72.53C31.5699 71.8167 31.8199 71.2034 32.3332 70.69C32.8465 70.1767 33.4599 69.9267 34.1732 69.94C34.8532 69.94 35.4099 70.16 35.8432 70.6C36.2832 71.04 36.5032 71.5867 36.5032 72.24C36.5032 72.48 36.4732 72.7267 36.4132 72.98ZM32.9432 72.03H35.1932C35.1865 71.73 35.0799 71.49 34.8732 71.31C34.6732 71.1234 34.4232 71.03 34.1232 71.03C33.8365 71.03 33.5865 71.12 33.3732 71.3C33.1599 71.48 33.0165 71.7234 32.9432 72.03Z" fill="white"/>
<path d="M42.0066 71.93V75H40.6666V72.11C40.6666 71.8234 40.5799 71.5934 40.4066 71.42C40.2399 71.24 40.0199 71.15 39.7466 71.15C39.4732 71.15 39.2466 71.24 39.0666 71.42C38.8932 71.5934 38.8066 71.8234 38.8066 72.11V75H37.4566V70.05H38.6966V70.5C39.0699 70.1267 39.5532 69.94 40.1466 69.94C40.7199 69.94 41.1732 70.12 41.5066 70.48C41.8399 70.84 42.0066 71.3234 42.0066 71.93Z" fill="white"/>
<path d="M53.5389 71.93V75H52.1889V72.12C52.1889 71.8267 52.1089 71.5934 51.9489 71.42C51.7889 71.2467 51.5756 71.16 51.3089 71.16C51.0422 71.16 50.8222 71.2467 50.6489 71.42C50.4822 71.5934 50.3989 71.8167 50.3989 72.09V75H49.0489V72.12C49.0489 71.8267 48.9689 71.5934 48.8089 71.42C48.6489 71.2467 48.4356 71.16 48.1689 71.16C47.8956 71.16 47.6756 71.2467 47.5089 71.42C47.3422 71.5934 47.2589 71.8267 47.2589 72.12V75H45.9089V70.05H47.1489V70.49C47.4956 70.1234 47.9622 69.94 48.5489 69.94C49.1956 69.94 49.6856 70.1767 50.0189 70.65C50.4389 70.1767 50.9889 69.94 51.6689 69.94C52.2422 69.94 52.6956 70.12 53.0289 70.48C53.3689 70.84 53.5389 71.3234 53.5389 71.93Z" fill="white"/>
<path d="M54.7249 75V70.05H56.0749V75H54.7249ZM54.5349 68.25C54.5349 68.01 54.6183 67.81 54.7849 67.65C54.9516 67.49 55.1549 67.41 55.3949 67.41C55.6349 67.41 55.8383 67.49 56.0049 67.65C56.1783 67.81 56.2649 68.01 56.2649 68.25C56.2649 68.4834 56.1783 68.68 56.0049 68.84C55.8383 69 55.6349 69.08 55.3949 69.08C55.1549 69.08 54.9516 69 54.7849 68.84C54.6183 68.68 54.5349 68.4834 54.5349 68.25Z" fill="white"/>
<path d="M61.8605 71.93V75H60.5205V72.11C60.5205 71.8234 60.4338 71.5934 60.2605 71.42C60.0938 71.24 59.8738 71.15 59.6005 71.15C59.3271 71.15 59.1005 71.24 58.9205 71.42C58.7471 71.5934 58.6605 71.8234 58.6605 72.11V75H57.3105V70.05H58.5505V70.5C58.9238 70.1267 59.4071 69.94 60.0005 69.94C60.5738 69.94 61.0271 70.12 61.3605 70.48C61.6938 70.84 61.8605 71.3234 61.8605 71.93Z" fill="white"/>
<path d="M66.6601 67.5H68.0101V75H66.7701V74.39C66.4301 74.8767 65.9001 75.12 65.1801 75.12C64.4867 75.12 63.9134 74.8767 63.4601 74.39C63.0067 73.8967 62.7801 73.2767 62.7801 72.53C62.7801 71.7834 63.0067 71.1667 63.4601 70.68C63.9134 70.1867 64.4867 69.94 65.1801 69.94C65.8067 69.94 66.3001 70.1367 66.6601 70.53V67.5ZM66.3201 73.53C66.5601 73.29 66.6801 72.9567 66.6801 72.53C66.6801 72.1034 66.5601 71.77 66.3201 71.53C66.0801 71.2834 65.7834 71.16 65.4301 71.16C65.0634 71.16 64.7567 71.2867 64.5101 71.54C64.2701 71.7934 64.1501 72.12 64.1501 72.52C64.1501 72.9267 64.2701 73.2567 64.5101 73.51C64.7501 73.7634 65.0567 73.89 65.4301 73.89C65.7901 73.89 66.0867 73.77 66.3201 73.53Z" fill="white"/>
<rect x="35.2134" y="51.3708" width="15.8668" height="3.28536" fill="#333B79"/>
<rect x="37.8579" y="55.7512" width="10.5779" height="2.7378" fill="#DD080B"/>
<rect x="40.5024" y="59.5842" width="5.28893" height="2.19024" fill="#3A3A3A"/>
<ellipse cx="43.1468" cy="31.1112" rx="17.4535" ry="18.0695" fill="#F4B612"/>
<path d="M55.3115 29.2874C54.0971 23.1767 52.3159 20.8286 46.8492 18.8837" stroke="#F7F6F7" stroke-width="2"/>
</svg>
