<svg width="12" height="11" viewBox="0 0 12 11" fill="none" xmlns="http://www.w3.org/2000/svg">
<path fill-rule="evenodd" clip-rule="evenodd" d="M2.97831 2.99664C2.97831 1.31535 4.16131 0 5.97495 0C7.78357 0 8.97159 1.43957 8.97159 3.14647C8.97159 5.5977 7.64287 6.73712 5.98657 6.74242C9.45947 6.74416 11.726 7.5273 11.95 9.42115C11.5748 9.81603 11.1609 10.1737 10.7143 10.4882H10.47V9.73906C10.47 8.84163 8.86362 8.24074 5.975 8.24074C3.08638 8.24074 1.48004 8.84163 1.48004 9.73906V10.4882H1.23569C0.789121 10.1737 0.375193 9.81603 0 9.42115C0.223969 7.52727 2.49061 6.74413 5.96362 6.74242C4.29154 6.73713 2.97831 5.55851 2.97831 2.99664ZM4.47662 2.99649C4.47662 4.69652 5.08959 5.24397 5.97494 5.24397C6.85723 5.24397 7.47326 4.71835 7.47326 3.14632C7.47326 2.21018 6.88567 1.49817 5.97494 1.49817C5.02631 1.49817 4.47662 2.10935 4.47662 2.99649Z" fill="#3A3A3A"/>
</svg>
