<svg width="22" height="22" viewBox="0 0 22 22" fill="none" xmlns="http://www.w3.org/2000/svg">
<path d="M11 0C4.928 0 0 4.928 0 11C0 17.072 4.928 22 11 22C17.072 22 22 17.072 22 11C22 4.928 17.072 0 11 0Z" fill="#333B79"/>
<path d="M11 3.29993C12.826 3.29993 14.3 4.77393 14.3 6.59993C14.3 8.42593 12.826 9.89993 11 9.89993C9.17395 9.89993 7.69995 8.42593 7.69995 6.59993C7.69995 4.77393 9.17395 3.29993 11 3.29993Z" fill="#FADDCD"/>
<path d="M10.9999 18.9199C8.2499 18.9199 5.8189 17.5119 4.3999 15.3779C4.4329 13.1889 8.7999 11.9899 10.9999 11.9899C13.1889 11.9899 17.5669 13.1889 17.5999 15.3779C16.1809 17.5119 13.7499 18.9199 10.9999 18.9199Z" fill="#FADDCD"/>
</svg>
