<svg width="21" height="21" viewBox="0 0 21 21" fill="none" xmlns="http://www.w3.org/2000/svg">
<path d="M16.8653 15.9951C16.4414 15.6411 15.8108 15.6979 15.4568 16.1218C15.1028 16.5457 15.1595 17.1763 15.5835 17.5303L16.8653 15.9951ZM18.6283 20.0727C19.0523 20.4267 19.6829 20.3699 20.0369 19.946C20.3908 19.5221 20.3341 18.8915 19.9102 18.5375L18.6283 20.0727ZM18.2692 10.1525C18.2692 14.6569 14.6253 18.3051 10.1346 18.3051V20.3051C15.7336 20.3051 20.2692 15.7578 20.2692 10.1525H18.2692ZM10.1346 18.3051C5.64383 18.3051 2 14.6569 2 10.1525H0C0 15.7578 4.53555 20.3051 10.1346 20.3051V18.3051ZM2 10.1525C2 5.64816 5.64383 2 10.1346 2V0C4.53555 0 0 4.5473 0 10.1525H2ZM10.1346 2C14.6253 2 18.2692 5.64816 18.2692 10.1525H20.2692C20.2692 4.5473 15.7336 0 10.1346 0V2ZM15.5835 17.5303L18.6283 20.0727L19.9102 18.5375L16.8653 15.9951L15.5835 17.5303Z" fill="#3A3A3A"/>
</svg>
