<svg width="32" height="25" viewBox="0 0 32 25" fill="none" xmlns="http://www.w3.org/2000/svg">
<path fill-rule="evenodd" clip-rule="evenodd" d="M29.68 19.288L27.2613 21.7068L24.1654 20.8444L23.2801 21.2095L21.6907 24H18.2712L16.6907 21.2L15.8062 20.8292L12.7106 21.681L10.2931 19.2633L11.1555 16.1673L10.7903 15.2817L8 13.6911V10.2715L10.801 8.69096L11.1718 7.80655L10.32 4.71086L12.7367 2.29408L15.8326 3.15774L16.7171 2.7929L18.3041 0H21.7245L23.305 2.80112L24.1894 3.17194L27.2844 2.32029L29.7049 4.73733L28.8423 7.83382L29.2072 8.71865L32 10.3057V13.7263L29.1993 15.3067L28.8281 16.1931L29.68 19.288ZM22.1818 12.0005C22.1818 13.2056 21.205 14.1825 20 14.1825C18.795 14.1825 17.8182 13.2056 17.8182 12.0005C17.8182 10.7955 18.795 9.81863 20 9.81863C21.205 9.81863 22.1818 10.7955 22.1818 12.0005Z" fill="#F4B612"/>
<path fill-rule="evenodd" clip-rule="evenodd" d="M14.4533 22.055L12.8408 23.5668L10.777 23.0277L10.1867 23.256L9.12716 25H6.84747L5.79377 23.25L5.20413 23.0182L3.14043 23.5506L1.5287 22.0395L2.10365 20.1046L1.86017 19.5511L0 18.557V16.4197L1.86733 15.4318L2.11453 14.8791L1.54669 12.9443L3.15781 11.4338L5.22171 11.9736L5.81143 11.7456L6.86941 10H9.14968L10.2034 11.7507L10.7929 11.9825L12.8563 11.4502L14.4699 12.9608L13.8949 14.8961L14.1382 15.4492L16 16.4411V18.5789L14.1328 19.5667L13.8854 20.1207L14.4533 22.055ZM9.45455 17.5003C9.45455 18.2535 8.80332 18.864 8 18.864C7.19668 18.864 6.54545 18.2535 6.54545 17.5003C6.54545 16.7472 7.19668 16.1366 8 16.1366C8.80332 16.1366 9.45455 16.7472 9.45455 17.5003Z" fill="#333B79"/>
</svg>
