<svg width="86" height="85" viewBox="0 0 86 85" fill="none" xmlns="http://www.w3.org/2000/svg">
<rect x="0.125" width="85" height="85" rx="17" fill="#DD080B"/>
<path d="M27.3013 49.9473C27.3013 55.3544 23.0906 59.614 18.0464 59.614C13.0022 59.614 8.7915 55.3544 8.7915 49.9473C8.7915 44.5402 13.0022 40.2806 18.0464 40.2806C23.0906 40.2806 27.3013 44.5402 27.3013 49.9473Z" stroke="#F4B612" stroke-width="4"/>
<path d="M73.125 49.9473C73.125 55.3544 68.9143 59.614 63.8701 59.614C58.8259 59.614 54.6152 55.3544 54.6152 49.9473C54.6152 44.5402 58.8259 40.2806 63.8701 40.2806C68.9143 40.2806 73.125 44.5402 73.125 49.9473Z" stroke="#F4B612" stroke-width="4"/>
<path d="M29.3013 26.6141L18.0464 49.9475H40.5562M29.3013 26.6141H51.8111M29.3013 26.6141L40.5562 49.9475M29.3013 26.6141L26.8895 21.6141M40.5562 49.9475L51.8111 26.6141M51.8111 26.6141L63.468 49.9475M51.8111 26.6141L54.2229 21.6141" stroke="#333B79" stroke-width="3" stroke-linecap="round" stroke-linejoin="round"/>
<rect x="20.458" y="18.2807" width="13.6667" height="3.33333" fill="#FADDCD"/>
<rect width="14.0433" height="3.2455" transform="matrix(0.486589 0.873631 -0.85807 0.513532 53.3433 13.3336)" fill="#FADDCD"/>
<path d="M15.6641 73.66L16.5941 72.96C17.0607 73.6 17.6007 73.92 18.2141 73.92C18.5074 73.92 18.7374 73.8567 18.9041 73.73C19.0707 73.5967 19.1541 73.4167 19.1541 73.19C19.1541 73.0033 19.0974 72.86 18.9841 72.76C18.8707 72.6533 18.6474 72.5233 18.3141 72.37L17.6041 72.05C16.5374 71.5767 16.0041 70.9433 16.0041 70.15C16.0041 69.59 16.2107 69.14 16.6241 68.8C17.0374 68.4533 17.5607 68.28 18.1941 68.28C18.6874 68.28 19.1207 68.3933 19.4941 68.62C19.8674 68.84 20.1607 69.1433 20.3741 69.53L19.4541 70.24C19.1141 69.7333 18.6941 69.48 18.1941 69.48C17.9541 69.48 17.7574 69.5367 17.6041 69.65C17.4507 69.7633 17.3741 69.92 17.3741 70.12C17.3741 70.2867 17.4274 70.4233 17.5341 70.53C17.6474 70.63 17.8507 70.7467 18.1441 70.88L18.8941 71.21C19.4607 71.4633 19.8741 71.74 20.1341 72.04C20.3941 72.3333 20.5241 72.7 20.5241 73.14C20.5241 73.7333 20.3074 74.2133 19.8741 74.58C19.4407 74.94 18.8874 75.12 18.2141 75.12C17.6607 75.12 17.1607 74.99 16.7141 74.73C16.2741 74.47 15.9241 74.1133 15.6641 73.66Z" fill="white"/>
<path d="M26.06 70.68C26.52 71.1667 26.75 71.78 26.75 72.52C26.75 73.26 26.52 73.88 26.06 74.38C25.6067 74.8733 25.0367 75.12 24.35 75.12C23.73 75.12 23.2367 74.92 22.87 74.52V76.8H21.52V70.05H22.76V70.67C23.1 70.1833 23.63 69.94 24.35 69.94C25.0367 69.94 25.6067 70.1867 26.06 70.68ZM25.38 72.53C25.38 72.1233 25.26 71.7933 25.02 71.54C24.78 71.2867 24.4733 71.16 24.1 71.16C23.74 71.16 23.44 71.28 23.2 71.52C22.9667 71.76 22.85 72.0933 22.85 72.52C22.85 72.9467 22.9667 73.2833 23.2 73.53C23.44 73.77 23.74 73.89 24.1 73.89C24.4667 73.89 24.77 73.7633 25.01 73.51C25.2567 73.2567 25.38 72.93 25.38 72.53Z" fill="white"/>
<path d="M27.4291 72.52C27.4157 71.8133 27.6724 71.2033 28.1991 70.69C28.7257 70.1767 29.3524 69.9267 30.0791 69.94C30.8057 69.9267 31.4324 70.1767 31.9591 70.69C32.4924 71.2033 32.7524 71.8133 32.7391 72.52C32.7524 73.2267 32.4924 73.84 31.9591 74.36C31.4257 74.8733 30.7957 75.1233 30.0691 75.11C29.3424 75.1233 28.7157 74.8733 28.1891 74.36C27.6691 73.84 27.4157 73.2267 27.4291 72.52ZM30.9891 73.49C31.2357 73.2367 31.3591 72.9167 31.3591 72.53C31.3591 72.1433 31.2357 71.82 30.9891 71.56C30.7491 71.3 30.4457 71.17 30.0791 71.17C29.7057 71.17 29.3991 71.3 29.1591 71.56C28.9191 71.8133 28.7991 72.1367 28.7991 72.53C28.7991 72.9167 28.9191 73.2367 29.1591 73.49C29.3991 73.7433 29.7057 73.87 30.0791 73.87C30.4457 73.87 30.7491 73.7433 30.9891 73.49Z" fill="white"/>
<path d="M36.733 70.05V71.24H36.373C35.9597 71.24 35.633 71.35 35.393 71.57C35.1597 71.79 35.043 72.11 35.043 72.53V75H33.693V70.05H34.933V70.64C35.2797 70.2067 35.733 69.99 36.293 69.99C36.4597 69.99 36.6064 70.01 36.733 70.05Z" fill="white"/>
<path d="M40.65 73.87V75C40.33 75.08 40.02 75.12 39.72 75.12C39.0867 75.12 38.5967 74.9633 38.25 74.65C37.91 74.3367 37.74 73.8733 37.74 73.26V71.19H36.96V70.05H37.74V68.8H39.09V70.05H40.49V71.19H39.09V73.14C39.09 73.42 39.16 73.62 39.3 73.74C39.4467 73.8533 39.6833 73.91 40.01 73.91C40.1233 73.91 40.3367 73.8967 40.65 73.87Z" fill="white"/>
<path d="M51.8629 71.93V75H50.5129V72.12C50.5129 71.8267 50.4329 71.5933 50.2729 71.42C50.1129 71.2467 49.8996 71.16 49.6329 71.16C49.3662 71.16 49.1462 71.2467 48.9729 71.42C48.8062 71.5933 48.7229 71.8167 48.7229 72.09V75H47.3729V72.12C47.3729 71.8267 47.2929 71.5933 47.1329 71.42C46.9729 71.2467 46.7596 71.16 46.4929 71.16C46.2196 71.16 45.9996 71.2467 45.8329 71.42C45.6662 71.5933 45.5829 71.8267 45.5829 72.12V75H44.2329V70.05H45.4729V70.49C45.8196 70.1233 46.2862 69.94 46.8729 69.94C47.5196 69.94 48.0096 70.1767 48.3429 70.65C48.7629 70.1767 49.3129 69.94 49.9929 69.94C50.5662 69.94 51.0196 70.12 51.3529 70.48C51.6929 70.84 51.8629 71.3233 51.8629 71.93Z" fill="white"/>
<path d="M52.7689 72.52C52.7556 71.8133 53.0122 71.2033 53.5389 70.69C54.0656 70.1767 54.6922 69.9267 55.4189 69.94C56.1456 69.9267 56.7722 70.1767 57.2989 70.69C57.8322 71.2033 58.0922 71.8133 58.0789 72.52C58.0922 73.2267 57.8322 73.84 57.2989 74.36C56.7656 74.8733 56.1356 75.1233 55.4089 75.11C54.6822 75.1233 54.0556 74.8733 53.5289 74.36C53.0089 73.84 52.7556 73.2267 52.7689 72.52ZM56.3289 73.49C56.5756 73.2367 56.6989 72.9167 56.6989 72.53C56.6989 72.1433 56.5756 71.82 56.3289 71.56C56.0889 71.3 55.7856 71.17 55.4189 71.17C55.0456 71.17 54.7389 71.3 54.4989 71.56C54.2589 71.8133 54.1389 72.1367 54.1389 72.53C54.1389 72.9167 54.2589 73.2367 54.4989 73.49C54.7389 73.7433 55.0456 73.87 55.4189 73.87C55.7856 73.87 56.0889 73.7433 56.3289 73.49Z" fill="white"/>
<path d="M58.7529 72.52C58.7396 71.8133 58.9962 71.2033 59.5229 70.69C60.0496 70.1767 60.6762 69.9267 61.4029 69.94C62.1296 69.9267 62.7562 70.1767 63.2829 70.69C63.8162 71.2033 64.0762 71.8133 64.0629 72.52C64.0762 73.2267 63.8162 73.84 63.2829 74.36C62.7496 74.8733 62.1196 75.1233 61.3929 75.11C60.6662 75.1233 60.0396 74.8733 59.5129 74.36C58.9929 73.84 58.7396 73.2267 58.7529 72.52ZM62.3129 73.49C62.5596 73.2367 62.6829 72.9167 62.6829 72.53C62.6829 72.1433 62.5596 71.82 62.3129 71.56C62.0729 71.3 61.7696 71.17 61.4029 71.17C61.0296 71.17 60.7229 71.3 60.4829 71.56C60.2429 71.8133 60.1229 72.1367 60.1229 72.53C60.1229 72.9167 60.2429 73.2367 60.4829 73.49C60.7229 73.7433 61.0296 73.87 61.4029 73.87C61.7696 73.87 62.0729 73.7433 62.3129 73.49Z" fill="white"/>
<path d="M68.6169 67.5H69.9669V75H68.7269V74.39C68.3869 74.8767 67.8569 75.12 67.1369 75.12C66.4435 75.12 65.8702 74.8767 65.4169 74.39C64.9635 73.8967 64.7369 73.2767 64.7369 72.53C64.7369 71.7833 64.9635 71.1667 65.4169 70.68C65.8702 70.1867 66.4435 69.94 67.1369 69.94C67.7635 69.94 68.2569 70.1367 68.6169 70.53V67.5ZM68.2769 73.53C68.5169 73.29 68.6369 72.9567 68.6369 72.53C68.6369 72.1033 68.5169 71.77 68.2769 71.53C68.0369 71.2833 67.7402 71.16 67.3869 71.16C67.0202 71.16 66.7135 71.2867 66.4669 71.54C66.2269 71.7933 66.1069 72.12 66.1069 72.52C66.1069 72.9267 66.2269 73.2567 66.4669 73.51C66.7069 73.7633 67.0135 73.89 67.3869 73.89C67.7469 73.89 68.0435 73.77 68.2769 73.53Z" fill="white"/>
</svg>
